<svg xmlns="http://www.w3.org/2000/svg" xmlns:xlink="http://www.w3.org/1999/xlink" width="250" zoomAndPan="magnify" viewBox="0 0 187.5 187.499992" height="250" preserveAspectRatio="xMidYMid meet" version="1.0"><path fill="#000000" d="M 42.066406 0 L 144.824219 0 C 156.4375 0 166.953125 4.710938 174.621094 12.378906 C 182.179688 19.9375 187 30.5625 187 42.066406 L 187 144.824219 C 187 156.4375 182.179688 166.953125 174.621094 174.621094 C 166.953125 182.179688 156.4375 187 144.824219 187 L 42.066406 187 C 30.5625 187 19.9375 182.179688 12.378906 174.621094 C 4.710938 166.953125 0 156.4375 0 144.824219 L 0 42.066406 C 0 30.5625 4.710938 19.9375 12.378906 12.378906 C 19.9375 4.710938 30.5625 0 42.066406 0 Z M 144.824219 16.652344 L 42.066406 16.652344 C 35.054688 16.652344 28.703125 19.5 24.101562 24.101562 C 19.5 28.703125 16.652344 35.054688 16.652344 42.066406 L 16.652344 144.824219 C 16.652344 151.835938 19.5 158.191406 24.101562 162.789062 C 28.703125 167.5 35.054688 170.351562 42.066406 170.351562 L 144.824219 170.351562 C 151.835938 170.351562 158.191406 167.5 162.789062 162.789062 C 167.5 158.191406 170.351562 151.835938 170.351562 144.824219 L 170.351562 42.066406 C 170.351562 35.054688 167.5 28.703125 162.789062 24.101562 C 158.191406 19.5 151.835938 16.652344 144.824219 16.652344 Z M 144.824219 16.652344 " fill-opacity="1" fill-rule="nonzero"/><path fill="#000000" d="M 145.921875 32.644531 C 148.222656 32.644531 150.410156 33.523438 151.835938 35.054688 C 153.371094 36.589844 154.355469 38.671875 154.355469 40.972656 C 154.355469 43.273438 153.371094 45.464844 151.835938 46.886719 C 150.410156 48.421875 148.222656 49.40625 145.921875 49.40625 C 143.621094 49.40625 141.539062 48.421875 140.003906 46.886719 C 138.472656 45.464844 137.59375 43.273438 137.59375 40.972656 C 137.59375 38.671875 138.472656 36.589844 140.003906 35.054688 C 141.539062 33.523438 143.621094 32.644531 145.921875 32.644531 Z M 145.921875 32.644531 " fill-opacity="1" fill-rule="nonzero"/><path fill="#000000" d="M 93.445312 48.09375 C 106.042969 48.09375 117.328125 53.242188 125.542969 61.347656 C 133.761719 69.5625 138.910156 80.957031 138.910156 93.445312 C 138.910156 106.042969 133.761719 117.328125 125.542969 125.542969 C 117.328125 133.761719 106.042969 138.910156 93.445312 138.910156 C 80.957031 138.910156 69.5625 133.761719 61.347656 125.542969 C 53.242188 117.328125 48.09375 106.042969 48.09375 93.445312 C 48.09375 80.957031 53.242188 69.5625 61.347656 61.347656 C 69.5625 53.242188 80.957031 48.09375 93.445312 48.09375 Z M 113.710938 73.289062 C 108.5625 68.140625 101.332031 64.851562 93.445312 64.851562 C 85.558594 64.851562 78.4375 68.140625 73.289062 73.289062 C 68.140625 78.4375 64.851562 85.558594 64.851562 93.445312 C 64.851562 101.332031 68.140625 108.5625 73.289062 113.710938 C 78.4375 118.863281 85.558594 122.039062 93.445312 122.039062 C 101.332031 122.039062 108.5625 118.863281 113.710938 113.710938 C 118.863281 108.5625 122.039062 101.332031 122.039062 93.445312 C 122.039062 85.558594 118.863281 78.4375 113.710938 73.289062 Z M 113.710938 73.289062 " fill-opacity="1" fill-rule="nonzero"/></svg>