<svg xmlns="http://www.w3.org/2000/svg" xmlns:xlink="http://www.w3.org/1999/xlink" width="250" zoomAndPan="magnify" viewBox="0 0 187.5 187.499992" height="250" preserveAspectRatio="xMidYMid meet" version="1.0"><path fill="#000000" d="M 163.496094 0.367188 L 23.453125 0.367188 C 10.582031 0.367188 0 10.929688 0 23.742188 L 0 163.144531 C 0 175.960938 10.582031 186.636719 23.453125 186.636719 L 93.136719 186.636719 L 93.136719 122.355469 L 70.125 122.355469 L 70.125 93.867188 L 93.136719 93.867188 L 93.136719 70.210938 C 93.136719 50.960938 109.148438 35.792969 128.488281 35.792969 L 152.304688 35.792969 L 152.304688 64.648438 L 140.15625 64.648438 C 133.714844 64.648438 128.5625 63.796875 128.5625 70.210938 L 128.5625 93.867188 L 157.664062 93.867188 L 145.992188 122.355469 L 128.5625 122.355469 L 128.5625 186.636719 L 163.496094 186.636719 C 176.371094 186.636719 187 175.960938 187 163.144531 L 187 23.742188 C 187 10.929688 176.371094 0.367188 163.496094 0.367188 Z M 163.496094 0.367188 " fill-opacity="1" fill-rule="nonzero"/></svg>