<svg xmlns="http://www.w3.org/2000/svg" xmlns:xlink="http://www.w3.org/1999/xlink" width="250" zoomAndPan="magnify" viewBox="0 0 187.5 187.499992" height="250" preserveAspectRatio="xMidYMid meet" version="1.0"><path fill="#000000" d="M 43.59375 67.820312 L 57.425781 67.820312 C 57.777344 67.820312 58.117188 67.886719 58.441406 68.023438 C 58.765625 68.15625 59.054688 68.347656 59.300781 68.597656 C 59.550781 68.847656 59.742188 69.132812 59.878906 69.457031 C 60.011719 69.78125 60.078125 70.121094 60.078125 70.472656 L 60.078125 146.550781 C 60.078125 146.902344 60.011719 147.242188 59.878906 147.566406 C 59.742188 147.890625 59.550781 148.175781 59.300781 148.425781 C 59.054688 148.675781 58.765625 148.867188 58.441406 149 C 58.117188 149.136719 57.777344 149.203125 57.425781 149.203125 L 43.59375 149.203125 C 43.242188 149.203125 42.90625 149.136719 42.582031 149 C 42.253906 148.867188 41.96875 148.675781 41.71875 148.425781 C 41.472656 148.175781 41.277344 147.890625 41.144531 147.566406 C 41.011719 147.242188 40.941406 146.902344 40.941406 146.550781 L 40.941406 70.472656 C 40.941406 70.121094 41.011719 69.78125 41.144531 69.457031 C 41.277344 69.132812 41.472656 68.847656 41.71875 68.597656 C 41.96875 68.347656 42.253906 68.15625 42.582031 68.023438 C 42.90625 67.886719 43.242188 67.820312 43.59375 67.820312 Z M 43.59375 67.820312 " fill-opacity="1" fill-rule="nonzero"/><path fill="#000000" d="M 61.652344 49.050781 C 61.632812 42.527344 56.953125 37.796875 50.511719 37.796875 C 44.070312 37.796875 39.214844 42.65625 39.214844 49.097656 C 39.214844 52.09375 40.308594 54.882812 42.292969 56.945312 C 44.332031 59.070312 47.140625 60.238281 50.195312 60.238281 C 53.585938 60.238281 56.609375 59.042969 58.714844 56.863281 C 60.6875 54.820312 61.730469 52.066406 61.652344 49.097656 C 61.652344 49.082031 61.652344 49.070312 61.652344 49.050781 Z M 61.652344 49.050781 " fill-opacity="1" fill-rule="nonzero"/><path fill="#000000" d="M 137.414062 73.171875 C 130.527344 67.011719 122.457031 66.089844 118.257812 66.089844 C 111.984375 66.089844 106.007812 67.765625 100.96875 70.941406 C 98.765625 72.328125 96.777344 73.96875 95 75.871094 L 94.652344 70.300781 C 94.628906 69.964844 94.546875 69.644531 94.402344 69.335938 C 94.261719 69.03125 94.066406 68.761719 93.820312 68.53125 C 93.570312 68.300781 93.292969 68.125 92.976562 68 C 92.664062 67.875 92.335938 67.816406 92 67.816406 L 79.746094 67.816406 C 79.378906 67.816406 79.023438 67.890625 78.683594 68.035156 C 78.347656 68.183594 78.050781 68.394531 77.800781 68.664062 C 77.550781 68.933594 77.363281 69.242188 77.242188 69.59375 C 77.121094 69.941406 77.074219 70.296875 77.101562 70.667969 C 77.535156 76.472656 77.722656 82.574219 77.722656 91.058594 L 77.722656 146.550781 C 77.722656 146.902344 77.789062 147.242188 77.925781 147.566406 C 78.058594 147.890625 78.25 148.175781 78.5 148.425781 C 78.746094 148.675781 79.035156 148.867188 79.359375 149 C 79.683594 149.136719 80.023438 149.203125 80.375 149.203125 L 94.207031 149.203125 C 94.558594 149.203125 94.898438 149.136719 95.222656 149 C 95.546875 148.867188 95.835938 148.675781 96.082031 148.425781 C 96.332031 148.175781 96.523438 147.890625 96.65625 147.566406 C 96.792969 147.242188 96.859375 146.902344 96.859375 146.550781 L 96.859375 100.808594 C 96.859375 98.660156 97.144531 96.640625 97.644531 95.269531 C 97.660156 95.230469 97.671875 95.183594 97.6875 95.136719 C 99.554688 89.039062 105.234375 82.867188 113.699219 82.867188 C 118.9375 82.867188 122.699219 84.660156 125.199219 88.34375 C 127.453125 91.675781 128.644531 96.640625 128.644531 102.691406 L 128.644531 146.550781 C 128.644531 146.902344 128.714844 147.242188 128.847656 147.566406 C 128.984375 147.890625 129.175781 148.175781 129.421875 148.425781 C 129.671875 148.675781 129.957031 148.867188 130.285156 149 C 130.609375 149.136719 130.945312 149.203125 131.296875 149.203125 L 145.132812 149.203125 C 145.484375 149.203125 145.820312 149.136719 146.148438 149 C 146.472656 148.867188 146.757812 148.675781 147.007812 148.425781 C 147.257812 148.175781 147.449219 147.890625 147.582031 147.566406 C 147.714844 147.242188 147.785156 146.902344 147.785156 146.550781 L 147.785156 101.125 C 147.785156 94.652344 146.804688 88.914062 144.878906 84.074219 C 143.144531 79.722656 140.632812 76.050781 137.414062 73.171875 Z M 137.414062 73.171875 " fill-opacity="1" fill-rule="nonzero"/><path fill="#000000" d="M 162.65625 0 L 24.34375 0 C 10.921875 0 0 10.921875 0 24.34375 L 0 162.65625 C 0 176.078125 10.921875 187 24.34375 187 L 162.65625 187 C 176.078125 187 187 176.078125 187 162.65625 L 187 24.34375 C 187 10.921875 176.078125 0 162.65625 0 Z M 169.90625 25.523438 L 169.90625 161.476562 C 169.90625 162.03125 169.851562 162.578125 169.742188 163.121094 C 169.636719 163.664062 169.476562 164.191406 169.261719 164.703125 C 169.050781 165.214844 168.792969 165.699219 168.484375 166.160156 C 168.175781 166.617188 167.828125 167.042969 167.4375 167.4375 C 167.042969 167.828125 166.617188 168.175781 166.160156 168.484375 C 165.699219 168.792969 165.214844 169.050781 164.703125 169.261719 C 164.191406 169.476562 163.664062 169.636719 163.121094 169.742188 C 162.578125 169.851562 162.03125 169.90625 161.476562 169.90625 L 25.523438 169.90625 C 24.96875 169.90625 24.421875 169.851562 23.878906 169.742188 C 23.335938 169.636719 22.808594 169.476562 22.300781 169.261719 C 21.789062 169.050781 21.300781 168.792969 20.84375 168.484375 C 20.382812 168.175781 19.957031 167.828125 19.566406 167.4375 C 19.175781 167.042969 18.824219 166.617188 18.515625 166.160156 C 18.210938 165.699219 17.949219 165.214844 17.738281 164.703125 C 17.527344 164.191406 17.367188 163.664062 17.257812 163.121094 C 17.148438 162.578125 17.09375 162.03125 17.09375 161.476562 L 17.09375 25.523438 C 17.09375 24.96875 17.148438 24.421875 17.257812 23.878906 C 17.367188 23.335938 17.527344 22.808594 17.738281 22.300781 C 17.949219 21.789062 18.210938 21.300781 18.515625 20.84375 C 18.824219 20.382812 19.175781 19.957031 19.566406 19.566406 C 19.957031 19.175781 20.382812 18.824219 20.84375 18.515625 C 21.300781 18.210938 21.789062 17.949219 22.300781 17.738281 C 22.808594 17.527344 23.335938 17.367188 23.878906 17.257812 C 24.421875 17.148438 24.96875 17.09375 25.523438 17.09375 L 161.476562 17.09375 C 162.03125 17.09375 162.578125 17.148438 163.121094 17.257812 C 163.664062 17.367188 164.191406 17.527344 164.703125 17.738281 C 165.214844 17.949219 165.699219 18.210938 166.160156 18.515625 C 166.617188 18.824219 167.042969 19.175781 167.4375 19.566406 C 167.828125 19.957031 168.175781 20.382812 168.484375 20.84375 C 168.792969 21.300781 169.050781 21.789062 169.261719 22.300781 C 169.476562 22.808594 169.636719 23.335938 169.742188 23.878906 C 169.851562 24.421875 169.90625 24.96875 169.90625 25.523438 Z M 169.90625 25.523438 " fill-opacity="1" fill-rule="nonzero"/></svg>